<svg xmlns="http://www.w3.org/2000/svg" viewBox="0 0 24 24"><path d="M12.0 20.0Q8.65 20.0 6.325 17.675Q4.0 15.35 4.0 12.0Q4.0 8.649999999999999 6.325 6.324999999999999Q8.65 4.0 12.0 4.0Q13.725000000000001 4.0 15.3 4.712499999999999Q16.875 5.425000000000001 18.0 6.75V5.0Q18.0 4.574999999999999 18.2875 4.287499999999998Q18.575 4.0 19.0 4.0Q19.425 4.0 19.712500000000002 4.287499999999998Q20.0 4.574999999999999 20.0 5.0V10.0Q20.0 10.424999999999999 19.712500000000002 10.712499999999999Q19.425 11.0 19.0 11.0H14.0Q13.575000000000001 11.0 13.287500000000001 10.712499999999999Q13.0 10.424999999999999 13.0 10.0Q13.0 9.575 13.287500000000001 9.2875Q13.575000000000001 9.0 14.0 9.0H17.2Q16.400000000000002 7.599999999999998 15.012500000000001 6.800000000000001Q13.625 6.0 12.0 6.0Q9.5 6.0 7.75 7.75Q6.0 9.5 6.0 12.0Q6.0 14.5 7.75 16.25Q9.5 18.0 12.0 18.0Q13.700000000000001 18.0 15.1125 17.1375Q16.525000000000002 16.275 17.3 14.825Q17.5 14.475 17.8625 14.337499999999999Q18.225 14.2 18.6 14.325Q19.0 14.45 19.175 14.85Q19.35 15.25 19.150000000000002 15.6Q18.125 17.6 16.225 18.8Q14.325000000000001 20.0 12.0 20.0Z"/></svg>
